<svg width="192" height="192" viewBox="0 0 192 192" fill="none" xmlns="http://www.w3.org/2000/svg">
<path d="M178.436 57.4012C179.375 57.4865 180.316 57.5662 181.256 57.645C181.857 57.6973 182.459 57.7498 183.061 57.8023C183.337 57.8245 183.613 57.8467 183.897 57.8696C184.152 57.8925 184.408 57.9155 184.671 57.9392C184.893 57.958 185.116 57.9769 185.345 57.9963C186.059 58.1309 186.603 58.3949 187.236 58.7457C187.018 58.903 186.8 59.0603 186.575 59.2223C175.861 67.0849 169.705 77.1255 164.434 89.1525C158.421 102.84 158.421 102.84 154.131 108.876C153.941 109.15 153.751 109.424 153.555 109.706C152.289 111.496 150.938 113.149 149.451 114.758C148.832 115.431 148.239 116.12 147.648 116.818C144.832 120.023 134.426 127.163 130.169 127.794C128.751 126.69 135.506 125.341 134.839 125.784C133.343 126.766 131.966 127.163 130.169 127.163C130.169 127.371 130.169 127.579 130.169 127.794C127.241 128.767 124.409 129.584 121.341 130.001C120.927 130.081 120.927 130.081 120.505 130.163C119.286 130.34 118.091 130.361 116.862 130.358C116.5 130.358 116.5 130.358 116.13 130.359C115.623 130.359 115.116 130.358 114.61 130.357C113.83 130.355 113.052 130.357 112.273 130.359C111.779 130.359 111.286 130.358 110.793 130.358C110.442 130.359 110.442 130.359 110.084 130.36C108.451 130.352 96.47 128.145 96.1184 127.794C95.458 127.732 122.949 129.909 122.287 129.859C118.802 129.589 99.4455 128.846 96.1184 127.794C96.6527 125.909 97.5569 124.238 98.4634 122.512C98.6323 122.191 98.8011 121.869 98.9752 121.537C105.169 109.859 113.266 99.6139 122.563 90.2744C122.78 90.0556 122.998 89.8369 123.221 89.6115C129.815 83.0388 137.607 77.6844 145.934 73.5642C146.354 73.3541 146.774 73.144 147.195 72.9336C136.024 76.9608 125.753 82.3314 116.612 89.9591C116.314 90.1993 116.015 90.4395 115.708 90.687C113.081 92.8383 110.675 95.2062 108.277 97.6048C108.113 97.7686 107.949 97.9323 107.78 98.101C105.927 99.9541 104.113 101.826 102.424 103.832C102.188 104.109 101.953 104.385 101.71 104.67C98.9344 108.031 96.3774 111.541 94.0211 115.206C93.3351 116.261 92.6323 117.168 91.7044 118.02C86.4699 109.109 83.132 98.8222 85.5564 88.3827C87.9622 79.2142 94.7562 72.0148 102.739 67.2387C113.758 60.8531 126.062 58.2179 138.608 56.9569C139.458 56.8711 140.306 56.7766 141.155 56.6766C153.494 55.3048 166.128 56.2617 178.436 57.4012Z" fill="#00498E"/>
<path d="M67.7419 90.5899C68.1607 90.7197 68.1607 90.7197 68.588 90.8522C75.0417 93.0035 80.9203 98.0953 84.1185 104.094C86.4725 108.921 89.2459 114.921 87.4472 120.325C87.2131 120.901 87.2131 120.901 86.9743 121.488C85.8772 121.011 85.111 120.366 84.2352 119.557C83.9556 119.302 83.676 119.046 83.3879 118.783C82.8875 118.322 82.388 117.859 81.8903 117.394C70.2142 106.691 54.9732 101.76 39.3661 101.31C39.8587 101.385 39.8587 101.385 40.3613 101.461C53.9998 103.635 66.4953 110.644 76.5699 119.912C77.0151 120.307 77.4616 120.702 77.9098 121.094C78.214 121.36 78.214 121.36 78.5244 121.632C79.0259 122.062 79.5409 122.476 80.0577 122.887C81.0007 123.71 81.7908 124.574 82.5985 125.526C83.0201 126.018 83.4524 126.501 83.8916 126.977C84.1221 127.227 84.3525 127.477 84.5899 127.735C84.8041 127.964 85.0183 128.194 85.239 128.43C85.7131 129.055 85.7131 129.055 85.7131 130.001C78.5928 135.931 67.5329 137.569 58.6478 136.837C46.8085 135.357 37.5317 128.418 30.3029 119.208C23.3364 110.648 15.6634 105.654 5 102.886C5.86262 101.872 6.97391 101.311 8.13315 100.699C8.36154 100.578 8.58992 100.457 8.82523 100.333C15.5731 96.8583 22.7677 93.9536 30.1151 92.0444C30.8538 91.8509 31.59 91.6494 32.3264 91.447C43.5497 88.4306 56.5039 86.9388 67.7419 90.5899Z" fill="#0D98B9"/>
</svg>
