<svg width="192" height="192" viewBox="0 0 192 192" fill="none" xmlns="http://www.w3.org/2000/svg">
<path d="M178.436 56.4012C179.375 56.4865 180.315 56.5662 181.256 56.645C181.857 56.6973 182.459 56.7498 183.061 56.8023C183.337 56.8245 183.613 56.8467 183.897 56.8696C184.152 56.8925 184.408 56.9155 184.671 56.9392C184.893 56.958 185.115 56.9769 185.344 56.9963C186.059 57.1309 186.603 57.3949 187.236 57.7457C187.018 57.903 186.799 58.0603 186.574 58.2223C175.86 66.0849 169.705 76.1255 164.434 88.1525C158.421 101.84 158.421 101.84 154.131 107.876C153.941 108.15 153.75 108.424 153.554 108.706C152.288 110.496 150.938 112.149 149.451 113.758C148.831 114.431 148.238 115.12 147.648 115.818C144.832 119.023 134.425 126.163 130.169 126.794C128.75 125.69 135.505 124.341 134.839 124.784C133.343 125.766 131.966 126.163 130.169 126.163C130.169 126.371 130.169 126.579 130.169 126.794C127.24 127.767 124.409 128.584 121.341 129.001C120.927 129.081 120.927 129.081 120.505 129.163C119.285 129.34 118.09 129.361 116.862 129.358C116.499 129.358 116.499 129.358 116.13 129.359C115.623 129.359 115.116 129.358 114.609 129.357C113.83 129.355 113.051 129.357 112.272 129.359C111.779 129.359 111.286 129.358 110.792 129.358C110.442 129.359 110.442 129.359 110.084 129.36C108.45 129.352 96.4695 127.145 96.1179 126.794C95.4575 126.732 122.948 128.909 122.287 128.859C118.801 128.589 99.445 127.846 96.1179 126.794C96.6522 124.909 97.5564 123.238 98.4629 121.513C98.6318 121.191 98.8007 120.869 98.9747 120.537C105.169 108.859 113.266 98.6139 122.563 89.2744C122.78 89.0556 122.997 88.8369 123.221 88.6115C129.814 82.0389 137.607 76.6844 145.933 72.5642C146.354 72.3541 146.774 72.144 147.194 71.9336C136.023 75.9608 125.753 81.3314 116.612 88.9591C116.313 89.1993 116.015 89.4395 115.708 89.687C113.081 91.8383 110.675 94.2062 108.276 96.6048C108.112 96.7686 107.948 96.9323 107.779 97.101C105.926 98.9541 104.113 100.826 102.424 102.832C102.188 103.109 101.952 103.385 101.709 103.67C98.9339 107.031 96.3768 110.541 94.0206 114.206C93.3346 115.261 92.6318 116.168 91.7039 117.02C86.4694 108.109 83.1315 97.8222 85.5558 87.3827C87.9616 78.2142 94.7557 71.0148 102.739 66.2387C113.758 59.8531 126.062 57.2179 138.607 55.9569C139.458 55.8711 140.306 55.7766 141.155 55.6766C153.494 54.3048 166.128 55.2617 178.436 56.4012Z" fill="#076938"/>
<path d="M67.7421 89.5896C68.1609 89.7195 68.1609 89.7195 68.5882 89.8519C75.042 92.0032 80.9206 97.095 84.1189 103.094C86.4728 107.921 89.2463 113.92 87.4475 119.325C87.2134 119.901 87.2134 119.901 86.9746 120.488C85.8775 120.011 85.1113 119.366 84.2356 118.557C83.9559 118.301 83.6763 118.046 83.3882 117.783C82.8878 117.321 82.3883 116.859 81.8906 116.394C70.2144 105.691 54.9734 100.76 39.3663 100.309C39.8589 100.384 39.8589 100.384 40.3614 100.461C53.9999 102.635 66.4956 109.644 76.5701 118.911C77.0154 119.307 77.4619 119.701 77.9101 120.094C78.2143 120.36 78.2143 120.36 78.5247 120.632C79.0262 121.062 79.5412 121.476 80.058 121.887C81.001 122.709 81.7911 123.574 82.5988 124.526C83.0204 125.018 83.4528 125.501 83.8919 125.977C84.1224 126.227 84.3528 126.477 84.5903 126.734C84.8044 126.964 85.0186 127.194 85.2393 127.43C85.7135 128.055 85.7135 128.055 85.7135 129C78.5931 134.931 67.5332 136.568 58.648 135.837C46.8087 134.357 37.5319 127.417 30.303 118.208C23.3365 109.648 15.6634 104.654 5 101.886C5.86262 100.872 6.97392 100.31 8.13316 99.6985C8.36155 99.5779 8.58993 99.4572 8.82524 99.333C15.5731 95.8581 22.7678 92.9534 30.1152 91.0441C30.8539 90.8507 31.5902 90.6491 32.3265 90.4468C43.5499 87.4303 56.5041 85.9386 67.7421 89.5896Z" fill="#AFCD15"/>
</svg>
